<mxfile host="app.diagrams.net" modified="2022-09-23T06:12:55.757Z" agent="5.0 (Windows NT 10.0; Win64; x64) AppleWebKit/537.36 (KHTML, like Gecko) Chrome/105.0.0.0 Safari/537.36" etag="qjAacPTrmcM37D9FyXIe" version="20.3.6" type="github">
  <diagram id="R2lEEEUBdFMjLlhIrx00" name="Page-1">
    <mxGraphModel dx="1179" dy="663" grid="1" gridSize="10" guides="1" tooltips="1" connect="1" arrows="1" fold="1" page="1" pageScale="1" pageWidth="850" pageHeight="1100" math="0" shadow="0" extFonts="Permanent Marker^https://fonts.googleapis.com/css?family=Permanent+Marker">
      <root>
        <mxCell id="0" />
        <mxCell id="1" parent="0" />
        <mxCell id="kaWW13RcvYhWk94CGhAO-5" style="edgeStyle=orthogonalEdgeStyle;rounded=0;orthogonalLoop=1;jettySize=auto;html=1;exitX=0;exitY=0.5;exitDx=0;exitDy=0;entryX=0.5;entryY=1;entryDx=0;entryDy=0;" edge="1" parent="1" source="kaWW13RcvYhWk94CGhAO-1" target="kaWW13RcvYhWk94CGhAO-2">
          <mxGeometry relative="1" as="geometry" />
        </mxCell>
        <mxCell id="kaWW13RcvYhWk94CGhAO-6" style="edgeStyle=orthogonalEdgeStyle;rounded=0;orthogonalLoop=1;jettySize=auto;html=1;entryX=0.357;entryY=0.967;entryDx=0;entryDy=0;entryPerimeter=0;" edge="1" parent="1" source="kaWW13RcvYhWk94CGhAO-1" target="kaWW13RcvYhWk94CGhAO-3">
          <mxGeometry relative="1" as="geometry" />
        </mxCell>
        <mxCell id="kaWW13RcvYhWk94CGhAO-7" style="edgeStyle=orthogonalEdgeStyle;rounded=0;orthogonalLoop=1;jettySize=auto;html=1;entryX=0.5;entryY=1;entryDx=0;entryDy=0;" edge="1" parent="1" source="kaWW13RcvYhWk94CGhAO-1" target="kaWW13RcvYhWk94CGhAO-4">
          <mxGeometry relative="1" as="geometry" />
        </mxCell>
        <mxCell id="kaWW13RcvYhWk94CGhAO-1" value="STUDENT" style="rounded=0;whiteSpace=wrap;html=1;" vertex="1" parent="1">
          <mxGeometry x="240" y="300" width="120" height="60" as="geometry" />
        </mxCell>
        <mxCell id="kaWW13RcvYhWk94CGhAO-2" value="RNO" style="rounded=1;whiteSpace=wrap;html=1;" vertex="1" parent="1">
          <mxGeometry x="60" y="190" width="70" height="30" as="geometry" />
        </mxCell>
        <mxCell id="kaWW13RcvYhWk94CGhAO-3" value="SNAME" style="rounded=1;whiteSpace=wrap;html=1;" vertex="1" parent="1">
          <mxGeometry x="150" y="180" width="70" height="30" as="geometry" />
        </mxCell>
        <mxCell id="kaWW13RcvYhWk94CGhAO-4" value="PHONE" style="rounded=1;whiteSpace=wrap;html=1;" vertex="1" parent="1">
          <mxGeometry x="240" y="500" width="70" height="30" as="geometry" />
        </mxCell>
      </root>
    </mxGraphModel>
  </diagram>
</mxfile>
